<svg xmlns="http://www.w3.org/2000/svg" width="1721.333" height="1721.333" preserveAspectRatio="xMidYMid meet" version="1.0" viewBox="0 0 1291 1291"><metadata>Created by potrace 1.11, written by Peter Selinger 2001-2013</metadata><g fill="#000" stroke="none"><path d="M6000 12900 c-1039 -78 -2011 -386 -2885 -913 -596 -360 -1170 -852 -1616 -1387 -769 -922 -1265 -2029 -1434 -3202 -53 -373 -59 -464 -59 -933 -1 -472 7 -589 60 -950 124 -841 412 -1646 847 -2370 1006 -1672 2713 -2806 4628 -3074 358 -50 453 -56 914 -55 388 0 465 2 648 22 985 108 1863 403 2697 908 289 175 534 263 839 304 126 17 387 15 525 -5 659 -91 1228 -501 1522 -1095 29 -60 64 -116 76 -124 34 -24 85 -20 113 9 l25 24 -1 3328 c-1 1830 -5 3382 -9 3448 -82 1252 -474 2365 -1189 3373 -467 658 -1106 1265 -1791 1699 -866 550 -1801 871 -2850 979 -180 18 -877 27 -1060 14z m700 -3565 c1009 -89 1889 -694 2340 -1609 228 -462 323 -955 287 -1486 -4 -58 -9 -116 -11 -130 -3 -14 -10 -59 -16 -100 -57 -391 -218 -803 -447 -1146 -450 -676 -1169 -1137 -1963 -1259 -241 -37 -604 -41 -810 -10 -171 26 -205 32 -228 39 -9 3 -30 8 -47 10 -16 3 -61 14 -100 25 -370 102 -683 254 -975 472 -164 123 -163 122 -321 279 -340 337 -575 725 -723 1195 -38 121 -89 357 -102 470 -3 33 -8 74 -11 90 -2 17 -6 116 -8 220 -6 269 14 464 72 720 23 102 83 304 103 350 5 11 24 56 41 100 18 44 60 134 94 200 276 540 693 964 1235 1252 467 249 1049 366 1590 318z" transform="translate(0.000000,1291.000000) scale(0.100000,-0.100000)"/></g></svg>