<svg xmlns="http://www.w3.org/2000/svg" width="28" height="28" fill="none" viewBox="0 0 28 28"><path stroke="#8990A5" stroke-linecap="round" stroke-linejoin="round" stroke-width="1.5" d="M22 11H13C11.8954 11 11 11.8954 11 13V22C11 23.1046 11.8954 24 13 24H22C23.1046 24 24 23.1046 24 22V13C24 11.8954 23.1046 11 22 11Z"/><path stroke="#8990A5" stroke-linecap="round" stroke-linejoin="round" stroke-width="1.5" d="M7 17H6C5.46957 17 4.96086 16.7893 4.58579 16.4142C4.21071 16.0391 4 15.5304 4 15V6C4 5.46957 4.21071 4.96086 4.58579 4.58579C4.96086 4.21071 5.46957 4 6 4H15C15.5304 4 16.0391 4.21071 16.4142 4.58579C16.7893 4.96086 17 5.46957 17 6V7" opacity=".5"/></svg>