<svg xmlns="http://www.w3.org/2000/svg" width="1184" height="803" fill="none" viewBox="0 0 1184 803"><mask id="mask0" width="1184" height="803" x="0" y="0" mask-type="alpha" maskUnits="userSpaceOnUse"><rect width="1184" height="803" fill="#C4C4C4"/></mask><g mask="url(#mask0)"><path fill="url(#paint0_linear)" fill-rule="evenodd" d="M977.873 60.9142C1042.13 79.3571 1078.37 142.589 1137 174.692C1209.46 214.362 1329.7 192.646 1359.29 269.748C1388.41 345.629 1294.83 412.64 1255.63 483.841C1225.28 538.976 1197.84 591.719 1156.09 638.828C1102.05 699.816 1057.47 779.793 977.873 797.304C892.93 815.99 800.182 785.905 731.813 732.164C664.701 679.41 629.916 595.591 614.475 511.655C600.422 435.263 629.97 362.184 649.942 287.12C671.306 206.828 666.435 106.451 734.844 59.262C803.193 12.1149 898.055 38.0044 977.873 60.9142Z" clip-rule="evenodd"/><path fill="url(#paint1_linear)" fill-rule="evenodd" d="M921.645 156.887C973.257 157.807 1012.93 197.728 1063.08 209.958C1125.05 225.072 1210.39 184.855 1247.87 236.45C1284.76 287.229 1228.37 355.901 1213.37 416.838C1201.75 464.023 1191.83 508.843 1170.11 552.319C1142 608.602 1124.74 677.157 1068.87 706.119C1009.25 737.025 934.062 733.115 872.325 706.69C811.723 680.751 769.021 625.183 740.723 565.665C714.969 511.496 722.396 451.087 722.285 391.112C722.166 326.959 698.465 253.066 740.053 204.204C781.605 155.386 857.533 155.745 921.645 156.887Z" clip-rule="evenodd"/><path fill="#ABB2DC" d="M833.09 147.639L837.181 147.628L882.249 225.843L878.158 225.854L833.09 147.639Z"/><path fill="#B1B7DF" d="M878.156 225.853L882.248 225.842L827.949 241.511L823.855 241.521L878.156 225.853Z"/><path fill="#B9BFE6" d="M833.088 147.639L878.156 225.853L823.855 241.521L833.088 147.639Z"/><path fill="url(#paint2_linear)" d="M995.458 248.873L975.141 213.382C976.694 216.095 978.74 218.329 981.286 220.102C986.028 223.404 992.614 225.054 1000.98 225.054C1009.41 225.053 1019.63 223.385 1031.61 220.043C1037.08 218.517 1043.54 215.865 1049.95 212.433C1063.15 205.365 1078.64 196.253 1102.93 196.257C1123.92 196.259 1135.32 205.154 1144.48 212.3C1150.94 217.349 1156.53 221.709 1163.68 221.709L1184 257.201C1176.85 257.201 1171.26 252.84 1164.79 247.792C1155.64 240.645 1144.24 231.75 1123.25 231.749C1098.95 231.748 1083.46 240.858 1070.27 247.925C1063.86 251.357 1057.4 254.009 1051.93 255.535C1039.95 258.877 1029.72 260.545 1021.3 260.545C1012.93 260.545 1006.34 258.895 1001.6 255.593C999.058 253.82 997.011 251.586 995.458 248.873Z"/><path fill="#B9BFE5" d="M992.237 250.728L971.92 215.237C967.787 208.019 967 197.644 969.496 183.851C972.45 167.518 979.59 149.011 985.329 134.142C986.995 129.82 988.571 125.734 989.919 122.039C996.138 104.974 996.265 90.7236 990.835 81.2339L1011.15 116.725C1016.58 126.215 1016.46 140.467 1010.24 157.53C1008.89 161.226 1007.31 165.311 1005.65 169.633C999.907 184.503 992.768 203.007 989.813 219.342C987.317 233.136 988.105 243.51 992.237 250.728Z"/><path fill="url(#paint3_linear)" d="M994.077 79.4317C990.643 73.4304 985.134 69.2844 977.877 67.3006C974.631 66.4118 971.118 65.9696 967.358 65.9692C962.58 65.9689 957.4 66.686 951.866 68.1177C941.534 70.7933 930.497 75.8434 919.059 83.1345C906.189 91.3354 893.768 101.772 882.147 114.148C872.888 124.008 864.108 135.115 856.048 147.171C851.153 154.491 847.117 161.286 843.945 167.006L864.454 202.08C867.225 197.272 872.549 188.367 876.363 182.661C884.422 170.608 893.201 159.5 902.462 149.639C914.083 137.262 926.502 126.828 939.374 118.625C950.812 111.334 961.85 106.281 972.181 103.608C977.715 102.176 982.894 101.459 987.673 101.459C991.433 101.46 994.944 101.904 998.191 102.791C1005.45 104.775 1010.96 108.919 1014.39 114.922L994.077 79.4317Z"/><path fill="#ABB2DC" d="M987.674 101.459C991.435 101.459 994.946 101.904 998.193 102.79C1007.61 105.363 1014.08 111.576 1016.9 120.755C1019.84 130.327 1018.67 142.881 1013.5 157.061C1012.14 160.78 1010.56 164.877 1008.89 169.214C1003.19 183.986 996.098 202.371 993.182 218.495C989.808 237.16 992.562 249.294 1001.61 255.589C1006.35 258.891 1012.94 260.541 1021.31 260.541C1029.73 260.541 1039.95 258.873 1051.93 255.531C1057.4 254.005 1063.08 251.161 1069.49 247.729C1082.69 240.66 1098.96 231.741 1123.25 231.743C1144.24 231.745 1155.64 240.64 1164.8 247.787C1171.26 252.835 1176.85 257.195 1184 257.195L1182.49 259.828C1174.47 259.828 1168.65 255.281 1161.91 250.019C1152.51 242.688 1141.87 234.377 1121.74 234.376C1098.61 234.373 1083.69 242.57 1070.39 249.693C1063.94 253.148 1057.7 256.289 1051.61 257.988C1039.2 261.45 1028.48 263.203 1019.73 263.204C1019.38 263.205 1019.03 263.204 1018.68 263.196C1010.35 263.058 1003.65 261.267 998.776 257.871C989.252 251.238 986.317 238.636 989.808 219.337C992.763 203.002 999.902 184.498 1005.64 169.628C1007.31 165.306 1008.88 161.221 1010.23 157.525C1020.1 130.44 1014.62 110.437 995.933 105.326C992.875 104.489 989.573 104.077 986.061 104.075C973.164 104.075 957.456 109.654 940.693 120.339C912.446 138.34 891.698 164.282 879.268 182.872C874.804 189.549 871.062 195.78 868.056 201.134L864.449 202.076C867.597 196.412 871.54 189.863 876.358 182.656C884.417 170.603 893.196 159.496 902.457 149.634C914.078 137.257 926.497 126.823 939.369 118.62C950.807 111.329 961.845 106.277 972.176 103.603C977.717 102.176 982.896 101.458 987.674 101.459Z"/><path fill="#FFA100" d="M911.021 45.1106C912.245 44.0787 913.984 43.3473 916.179 43.0513L936.016 51.1478C937.379 52.8959 938.114 54.6368 938.27 56.2322L938.855 56.4599L937.153 60.874C936.332 63.099 934.113 64.7701 930.691 65.3796C927.081 66.0184 923.384 65.5554 919.557 63.9536C915.702 62.42 912.203 59.9458 910.066 56.9615C908.043 54.1297 907.62 51.38 908.584 49.2133L910.443 44.8636L911.021 45.1106Z"/><path fill="#FFB433" d="M938.165 56.5491C938.138 56.174 938.076 55.7938 937.984 55.4003L934.195 64.1446C934.549 63.9437 934.88 63.6894 935.176 63.4537L938.165 56.5491Z"/><path fill="#FFB433" d="M916.281 43.0736C915.316 43.209 914.441 43.4432 913.656 43.7354L908.81 54.7222C908.92 54.9908 909.042 55.2544 909.173 55.5214L914.357 43.7806L915.505 44.2672L909.962 56.8104C910.008 56.8802 910.062 56.9534 910.107 57.0231C910.203 57.1542 910.306 57.2887 910.409 57.4232L916.112 44.5242L917.26 45.0108L911.308 58.4613C911.468 58.6401 911.632 58.8105 911.797 58.9809L917.863 45.2763L919.011 45.7629L912.767 59.8865C912.939 60.04 913.114 60.1849 913.29 60.3299L919.617 46.0199L920.765 46.5065L914.305 61.0932C914.488 61.2213 914.671 61.3493 914.854 61.4773L921.368 46.7719L922.516 47.2585L915.93 62.163C916.121 62.2741 916.312 62.3852 916.502 62.4962L923.119 47.524L924.267 48.0106L917.597 63.0742C917.796 63.1683 917.994 63.2624 918.192 63.3566L924.873 48.2676L926.022 48.7541L919.348 63.8789C919.55 63.9646 919.756 64.0418 919.962 64.119L926.628 49.0111L927.776 49.4977L921.125 64.5159C921.335 64.5846 921.548 64.6449 921.762 64.7051L928.387 49.7463L929.535 50.2328L922.968 65.0411C923.185 65.0929 923.406 65.1362 923.628 65.1795L930.141 50.4898L931.289 50.9764L924.889 65.405C925.114 65.4398 925.343 65.4895 925.575 65.5074L931.896 51.2334L933.044 51.72L926.898 65.6042C927.135 65.6137 927.383 65.618 927.615 65.6155L933.65 51.977L934.799 52.4636L928.994 65.6005C929.253 65.5795 929.506 65.5726 929.753 65.5362L935.405 52.7206L936.553 53.2072L931.237 65.2829C931.528 65.2144 931.791 65.1598 932.053 65.0692L937.164 53.4557L937.269 53.5003C936.969 52.8388 936.588 52.1634 936.112 51.4876C935.18 50.1753 933.983 48.962 932.6 47.8821L921.361 43.119C919.634 42.8712 917.908 42.8356 916.281 43.0736Z"/><path fill="#FFB433" d="M911.66 44.3139C911.4 44.4869 911.156 44.6666 910.932 44.8645L910.762 44.7915L908.122 51.0083C908.101 51.4513 908.081 51.9468 908.16 52.4131L911.66 44.3139Z"/><path fill="#FFBD4D" d="M931.854 61.2107C924.871 62.1485 915.93 58.3252 911.88 52.67C907.83 47.0149 910.212 41.6614 917.198 40.7152C924.181 39.7774 933.122 43.6007 937.172 49.2559C941.218 54.9194 938.84 60.2645 931.854 61.2107Z"/><path fill="#fff" d="M926.974 53.7625C932.115 53.0699 934.757 49.9831 934.188 46.1453C929.603 42.2768 922.733 39.9513 917.124 40.715C911.983 41.4076 909.341 44.4944 909.91 48.3322C914.504 52.2041 921.369 54.5178 926.974 53.7625Z" opacity=".2"/><path fill="#fff" d="M931.925 61.1319C924.923 62.0884 915.965 58.2389 911.912 52.5326C909.951 49.7734 909.509 47.089 910.354 44.9375C909.257 47.1533 909.628 50.0201 911.716 52.9757C915.769 58.6819 924.727 62.5315 931.729 61.5749C935.343 61.0798 937.731 59.3884 938.633 57.0885C937.616 59.1665 935.311 60.6705 931.925 61.1319Z" opacity=".7"/><path fill="#FFB433" d="M930.144 58.8118C924.794 59.5355 917.935 56.6026 914.837 52.2663C911.738 47.9301 913.559 43.8348 918.909 43.1112C924.259 42.3875 931.118 45.3204 934.217 49.6566C937.316 53.9929 935.494 58.0881 930.144 58.8118Z"/><path fill="#FFA100" d="M918.556 43.7366C923.929 43.003 930.817 45.962 933.927 50.3404C935.387 52.4011 935.758 54.4095 935.185 56.0348C936.103 54.3171 935.838 52.0696 934.192 49.7427C931.081 45.3644 924.194 42.4054 918.821 43.139C915.974 43.5244 914.118 44.8719 913.465 46.7032C914.288 45.1748 916.034 44.0756 918.556 43.7366Z"/><path fill="#ABB2DC" d="M898.32 95.4712C898.281 95.5796 894.546 106.526 886.568 120.316C881.872 128.434 876.641 135.948 871.022 142.652C863.949 151.092 856.228 158.27 848.078 163.986C817.685 185.303 802.441 186.881 784.787 188.71C772.901 189.94 759.431 191.334 738.934 199.38C712.879 209.61 699.538 223.978 684.091 240.615C674.063 251.414 663.691 262.583 648.736 273.85C629.56 288.297 609.897 296.361 590.294 297.827C588.12 297.989 585.953 298.07 583.801 298.069C572.978 298.07 562.476 296.02 552.498 291.952C549.823 290.862 546.798 289.41 543.598 287.874C532.923 282.751 518.613 275.879 503.087 275.881C501.761 275.881 500.427 275.931 499.086 276.035C477.473 277.734 420.018 298.789 419.439 299L419.32 296.683C421.707 295.804 478.049 275.163 500.297 273.413C501.737 273.3 503.164 273.246 504.581 273.246C520.754 273.246 535.324 280.241 546.198 285.458C549.371 286.984 552.37 288.422 554.994 289.491C562.169 292.417 572.535 295.349 585.243 295.35C602.296 295.353 623.569 290.071 647.013 272.41C661.557 261.452 671.761 250.464 681.627 239.839C696.9 223.391 711.329 207.855 738.7 197.111C759.89 188.793 773.709 187.361 785.901 186.098C803.516 184.274 817.426 182.835 846.528 162.424C864.094 150.104 876.332 132.747 883.507 120.356C891.341 106.826 895.006 96.1029 895.043 95.9968L898.32 95.4712Z"/><path fill="url(#paint4_linear)" d="M419.317 296.677L399 261.186C401.387 260.306 457.729 239.666 479.976 237.916C481.417 237.803 482.844 237.748 484.261 237.749C500.434 237.749 515.003 244.743 525.878 249.961C529.051 251.487 532.05 252.925 534.674 253.994C541.849 256.919 552.214 259.852 564.923 259.853C581.976 259.855 603.248 254.574 626.693 236.913C641.237 225.954 651.44 214.966 661.307 204.342C676.579 187.894 691.008 172.357 718.38 161.614C739.57 153.296 753.388 151.864 765.58 150.601C783.195 148.777 797.106 147.338 826.207 126.927C843.774 114.607 856.012 97.2499 863.187 84.8589C871.021 71.329 874.686 60.6056 874.723 60.4995L895.04 95.991C895.003 96.097 891.338 106.82 883.504 120.35C876.331 132.743 864.091 150.098 846.525 162.418C817.422 182.831 803.51 184.273 785.896 186.095C773.704 187.358 759.883 188.788 738.696 197.108C711.323 207.853 696.895 223.388 681.623 239.836C671.756 250.46 661.555 261.449 647.008 272.407C623.564 290.067 602.29 295.348 585.239 295.347C572.53 295.346 562.165 292.413 554.99 289.488C552.366 288.419 549.368 286.978 546.194 285.455C535.319 280.237 520.75 273.243 504.576 273.243C503.16 273.242 501.732 273.296 500.292 273.41C478.046 275.158 421.703 295.8 419.317 296.677Z"/><path fill="#ABB2DC" d="M915.961 23.0312L919.804 23L910.997 117.557L907.152 117.587L915.961 23.0312Z"/><path fill="#E4E8FF" d="M915.964 23.0312L907.156 117.587L861.385 39.0838L915.964 23.0312Z"/><path fill="#FFA100" d="M756.853 87.4481C760.414 84.4457 765.474 82.3177 771.858 81.4565L829.574 105.013C833.541 110.099 835.678 115.164 836.132 119.806L837.836 120.469L832.884 133.311C830.495 139.785 824.037 144.647 814.082 146.42C803.579 148.279 792.823 146.932 781.688 142.271C770.473 137.809 760.291 130.611 754.073 121.928C748.187 113.689 746.957 105.689 749.761 99.3848L755.172 86.7295L756.853 87.4481Z"/><path fill="#FFB433" d="M835.832 120.731C835.753 119.639 835.573 118.533 835.305 117.389L824.283 142.83C825.312 142.245 826.275 141.505 827.135 140.82L835.832 120.731Z"/><path fill="#FFB433" d="M772.162 81.5243C769.354 81.9182 766.808 82.5996 764.523 83.45L750.424 115.416C750.745 116.197 751.101 116.964 751.481 117.741L766.564 83.5815L769.904 84.9972L753.777 121.491C753.91 121.694 754.067 121.907 754.2 122.11C754.476 122.492 754.777 122.883 755.077 123.274L771.669 85.7449L775.009 87.1606L757.692 126.294C758.159 126.815 758.636 127.31 759.114 127.806L776.763 87.933L780.103 89.3487L761.937 130.441C762.437 130.888 762.947 131.309 763.458 131.731L781.868 90.0964L785.208 91.5122L766.412 133.952C766.945 134.324 767.477 134.697 768.01 135.069L786.962 92.2845L790.302 93.7002L771.141 137.064C771.696 137.388 772.251 137.711 772.806 138.034L792.056 94.4726L795.397 95.8883L775.991 139.715C776.568 139.989 777.145 140.263 777.722 140.537L797.161 96.636L800.502 98.0517L781.085 142.057C781.673 142.306 782.272 142.531 782.872 142.755L802.266 98.7995L805.607 100.215L786.255 143.91C786.865 144.11 787.486 144.285 788.108 144.461L807.382 100.938L810.723 102.354L791.617 145.438C792.249 145.589 792.893 145.715 793.536 145.841L812.487 103.102L815.828 104.517L797.205 146.497C797.86 146.598 798.526 146.743 799.203 146.795L817.592 105.265L820.933 106.681L803.052 147.077C803.74 147.104 804.462 147.117 805.137 147.11L822.697 107.429L826.038 108.844L809.149 147.066C809.904 147.005 810.639 146.985 811.359 146.879L827.802 109.592L831.143 111.008L815.677 146.142C816.522 145.942 817.288 145.784 818.05 145.52L832.918 111.731L833.224 111.86C832.352 109.936 831.245 107.971 829.859 106.005C827.149 102.186 823.664 98.6565 819.642 95.5145L786.942 81.6565C781.917 80.9355 776.896 80.8318 772.162 81.5243Z"/><path fill="#FFB433" d="M758.716 85.1329C757.961 85.6364 757.251 86.1592 756.597 86.7351L756.104 86.5225L748.424 104.61C748.363 105.899 748.305 107.341 748.534 108.697L758.716 85.1329Z"/><path fill="#FFBD4D" d="M817.467 134.289C797.152 137.017 771.137 125.894 759.354 109.44C747.571 92.9868 754.5 77.4108 774.827 74.6579C795.143 71.9295 821.157 83.0533 832.94 99.5068C844.712 115.985 837.794 131.536 817.467 134.289Z"/><path fill="#fff" d="M803.268 112.618C818.227 110.603 825.913 101.622 824.256 90.456C810.916 79.2006 790.929 72.4345 774.61 74.6565C759.651 76.6715 751.965 85.6526 753.621 96.8185C766.985 108.084 786.96 114.815 803.268 112.618Z" opacity=".2"/><path fill="#fff" d="M817.669 134.061C797.299 136.844 771.234 125.644 759.443 109.042C753.737 101.014 752.451 93.2036 754.911 86.9438C751.719 93.3907 752.799 101.732 758.873 110.331C770.664 126.933 796.729 138.133 817.098 135.35C827.615 133.91 834.564 128.988 837.186 122.297C834.228 128.343 827.521 132.719 817.669 134.061Z" opacity=".7"/><path fill="#FFB433" d="M812.492 127.312C796.927 129.418 776.971 120.885 767.955 108.269C758.939 95.6525 764.239 83.7374 779.804 81.6319C795.369 79.5264 815.325 88.0595 824.341 100.676C833.357 113.292 828.057 125.207 812.492 127.312Z"/><path fill="#FFA100" d="M778.778 83.4523C794.411 81.3178 814.45 89.9269 823.5 102.666C827.748 108.661 828.826 114.505 827.16 119.234C829.83 114.236 829.06 107.697 824.27 100.927C815.22 88.1882 795.181 79.579 779.548 81.7135C771.265 82.8349 765.865 86.7552 763.965 92.0834C766.361 87.6367 771.44 84.4386 778.778 83.4523Z"/><path fill="#FFA100" d="M1082.04 221.754C1085.72 221.649 1089.91 222.826 1094.29 225.443L1118.53 268.549C1118.49 273.663 1117.32 277.86 1115.32 280.965L1116.05 282.217L1106.67 287.741C1102.01 290.579 1095.61 290.407 1088.56 286.594C1081.13 282.563 1075.12 276.418 1070.5 268.03C1065.73 259.725 1062.95 250.233 1063.36 241.777C1063.76 233.759 1066.93 228.188 1071.77 225.66L1081.35 220.479L1082.04 221.754Z"/><path fill="#FFB433" d="M1114.68 281.391C1115.17 280.674 1115.6 279.899 1116 279.056L1096.65 289.402C1097.58 289.547 1098.54 289.563 1099.41 289.563L1114.68 281.391Z"/><path fill="#FFB433" d="M1094.45 225.636C1092.51 224.494 1090.6 223.66 1088.76 223.06L1064.3 235.935C1064.12 236.578 1063.96 237.23 1063.81 237.899L1089.96 224.149L1091.34 226.676L1063.4 241.36C1063.38 241.551 1063.37 241.761 1063.35 241.952C1063.34 242.326 1063.33 242.717 1063.33 243.108L1092.07 228.011L1093.44 230.538L1063.46 246.272C1063.5 246.826 1063.55 247.369 1063.6 247.912L1094.15 231.883L1095.53 234.411L1064.06 250.941C1064.15 251.464 1064.26 251.978 1064.37 252.492L1096.26 235.745L1097.63 238.273L1065.11 255.328C1065.26 255.822 1065.41 256.316 1065.55 256.81L1098.34 239.618L1099.72 242.145L1066.52 259.593C1066.7 260.068 1066.89 260.542 1067.07 261.017L1100.43 243.49L1101.8 246.017L1068.22 263.632C1068.44 264.087 1068.67 264.542 1068.89 264.997L1102.53 247.352L1103.91 249.879L1070.23 267.6C1070.47 268.045 1070.74 268.48 1071 268.915L1104.64 251.214L1106.01 253.742L1072.53 271.302C1072.81 271.727 1073.11 272.142 1073.41 272.558L1106.76 255.067L1108.14 257.594L1075.1 274.896C1075.42 275.302 1075.76 275.698 1076.1 276.093L1108.86 258.929L1110.24 261.456L1078.05 278.312C1078.41 278.698 1078.75 279.116 1079.14 279.483L1110.97 262.791L1112.34 265.318L1081.39 281.557C1081.81 281.914 1082.25 282.278 1082.67 282.607L1113.07 266.653L1114.45 269.181L1085.18 284.56C1085.68 284.895 1086.15 285.245 1086.65 285.535L1115.18 270.516L1116.55 273.043L1089.69 287.209C1090.31 287.502 1090.86 287.782 1091.47 287.994L1117.3 274.368L1117.43 274.599C1117.83 272.975 1118.11 271.209 1118.22 269.305C1118.41 265.598 1117.98 261.688 1117.03 257.753L1103.55 233.013C1100.79 230.086 1097.73 227.543 1094.45 225.636Z"/><path fill="#FFB433" d="M1084.33 221.238C1083.62 221.178 1082.92 221.152 1082.23 221.186L1082.03 220.811L1068.37 228.243C1067.7 229.013 1066.96 229.878 1066.43 230.833L1084.33 221.238Z"/><path fill="#FFBD4D" d="M1096.62 280.737C1082.68 272.402 1072 252.659 1072.78 236.634C1073.56 220.609 1085.51 214.364 1099.48 222.69C1113.42 231.025 1124.1 250.768 1123.32 266.793C1122.53 282.828 1110.59 289.062 1096.62 280.737Z"/><path fill="#fff" d="M1098.46 260.282C1108.74 266.416 1117.92 264.637 1122.38 256.891C1119.64 243.322 1110.56 229.258 1099.34 222.582C1089.07 216.449 1079.89 218.227 1075.43 225.973C1078.18 239.56 1087.27 253.596 1098.46 260.282Z" opacity=".2"/><path fill="#fff" d="M1096.86 280.696C1082.85 272.368 1072.19 252.553 1073.03 236.431C1073.44 228.634 1076.48 223.153 1081.08 220.483C1075.93 222.907 1072.5 228.616 1072.04 236.949C1071.2 253.071 1081.87 272.886 1095.87 281.214C1103.11 285.511 1109.84 285.887 1114.75 283.03C1109.95 285.321 1103.63 284.726 1096.86 280.696Z" opacity=".7"/><path fill="#FFB433" d="M1096.97 273.953C1086.27 267.577 1078.09 252.432 1078.69 240.153C1079.3 227.875 1088.44 223.098 1099.14 229.474C1109.83 235.851 1118.02 250.996 1117.41 263.274C1116.8 275.553 1107.66 280.33 1096.97 273.953Z"/><path fill="#FFA100" d="M1097.61 230.098C1108.36 236.49 1116.56 251.723 1115.91 264.094C1115.6 269.911 1113.4 274.069 1110.04 276.181C1114.15 274.398 1116.89 269.961 1117.24 263.395C1117.89 251.024 1109.69 235.791 1098.94 229.399C1093.25 226.006 1087.97 225.773 1084.17 228.141C1087.84 226.565 1092.57 227.088 1097.61 230.098Z"/></g><defs><linearGradient id="paint0_linear" x1="933.802" x2="763.942" y1="569.802" y2="102.073" gradientUnits="userSpaceOnUse"><stop stop-color="#EDEFF9" stop-opacity="0"/><stop offset="1" stop-color="#EDEFF9"/></linearGradient><linearGradient id="paint1_linear" x1="990.516" x2="770.352" y1="545.242" y2="230.295" gradientUnits="userSpaceOnUse"><stop stop-color="#E3E6F8" stop-opacity="0"/><stop offset="1" stop-color="#E3E6F8"/></linearGradient><linearGradient id="paint2_linear" x1="972.888" x2="1056.77" y1="225.361" y2="133.632" gradientUnits="userSpaceOnUse"><stop offset=".329" stop-color="#B9BFE6"/><stop offset=".482" stop-color="#C8CDE9"/><stop offset=".656" stop-color="#E4E8FF"/><stop offset=".803" stop-color="#F2F4FF"/><stop offset="1" stop-color="#E4E8FF"/></linearGradient><linearGradient id="paint3_linear" x1="845.318" x2="995.91" y1="169.386" y2="82.615" gradientUnits="userSpaceOnUse"><stop offset=".564" stop-color="#B9BFE6"/><stop offset=".645" stop-color="#C8CDE9"/><stop offset=".773" stop-color="#E4E8FF"/><stop offset=".93" stop-color="#F2F4FF"/><stop offset="1" stop-color="#E4E8FF"/></linearGradient><linearGradient id="paint4_linear" x1="417.912" x2="727.269" y1="242.26" y2="66.762" gradientUnits="userSpaceOnUse"><stop offset=".385" stop-color="#B9BFE6"/><stop offset=".557" stop-color="#C8CDE9"/><stop offset=".714" stop-color="#E4E8FF"/><stop offset=".865" stop-color="#F2F4FF"/><stop offset="1" stop-color="#E4E8FF"/></linearGradient></defs></svg>